<svg width="842" height="214" viewBox="0 0 842 214" fill="none" xmlns="http://www.w3.org/2000/svg">
<path d="M80.0369 213.035C129.029 213.035 159.24 188.403 159.24 149.482V149.346C159.24 118.726 141.141 102.123 99.6336 93.5498L78.8121 89.3311C55.6771 84.568 46.151 76.9471 46.151 64.1548V64.0187C46.151 49.3212 59.6237 40.0672 79.9008 39.9311C100.586 39.9311 114.195 49.7294 116.509 63.7465L116.781 65.3796H155.43L155.294 63.6104C152.708 30.8132 125.763 6.5895 79.9008 6.5895C36.3526 6.5895 5.05234 30.6771 5.05234 67.1487V67.2848C5.05234 97.0881 22.6077 116.14 63.4342 124.442L84.1196 128.661C108.479 133.696 118.142 140.909 118.142 153.837V153.973C118.142 169.079 103.036 179.558 81.1256 179.558C58.1267 179.558 42.2044 169.623 40.7074 154.926L40.5714 153.565H0.9697L1.10579 155.742C3.41929 190.581 33.0865 213.035 80.0369 213.035ZM242.636 211.13C264.002 211.13 279.244 201.196 286.048 184.865H288.498V208H328.236V58.1669H288.498V144.719C288.498 164.996 277.883 178.197 258.286 178.197C239.506 178.197 231.477 167.174 231.477 145.944V58.1669H191.739V155.062C191.739 190.717 209.022 211.13 242.636 211.13ZM455.452 210.313C492.876 210.313 516.283 181.055 516.283 133.152V132.879C516.283 84.7041 493.421 55.7173 455.452 55.7173C434.903 55.7173 418.164 65.7879 410.543 82.1184H408.093V0.873794H368.356V208H408.093V184.729H410.543C418.3 200.923 434.222 210.313 455.452 210.313ZM441.843 177.38C420.886 177.38 407.685 160.777 407.685 133.288V133.015C407.685 105.526 421.022 88.6507 441.843 88.6507C462.801 88.6507 475.865 105.526 475.865 132.879V133.152C475.865 160.777 462.937 177.38 441.843 177.38ZM601.721 209.089C606.348 209.089 610.839 208.544 615.466 207.728V187.587C611.111 187.995 608.797 188.131 604.578 188.131C589.337 188.131 583.349 181.191 583.349 163.907V80.8936H615.466V61.2969H583.349V23.3283H558.853V61.2969H535.718V80.8936H558.853V169.895C558.853 197.929 571.509 209.089 601.721 209.089ZM651.094 208H674.774V3.0512H651.094V208ZM778.991 210.586C813.558 210.586 834.515 190.989 839.55 171.12L839.823 170.031H816.143L815.599 171.256C811.652 180.102 799.404 189.492 779.536 189.492C753.407 189.492 736.668 171.801 735.987 141.453H841.592V132.199C841.592 88.3785 817.368 58.7113 777.494 58.7113C737.62 58.7113 711.764 89.7394 711.764 135.057V135.193C711.764 181.191 737.076 210.586 778.991 210.586ZM777.358 79.8049C798.996 79.8049 815.055 93.5498 817.504 122.537H736.396C738.981 94.6385 755.584 79.8049 777.358 79.8049Z" fill="black"/>
</svg>
